PathFileType	4	(X/Y/Z)	Patient4_TMGait_0pt3_01_left_28.trc.trc
DataRate	CameraRate	NumFrames	NumMarkers	Units	OrigDataRate	OrigDataStartFrame	OrigNumFrames
51.094890510949	51.094890510949	4	33	mm	51.094890510949	71	       141
Frame#	Time	Sacral			L.Shoulder			Chest			R.Shoulder			Neck			R.ASIS			L.ASIS			R.Thigh.Superior			R.Thigh.Lateral			R.Thigh.Inferior			R.Patella			L.Thigh.Superior			L.Thigh.Lateral			L.Thigh.Inferior			L.Patella			L.Shank.Superior			L.Shank.Lateral			L.Shank.Inferior			R.Shank.Superior			R.Shank.Lateral			R.Shank.Inferior			R.Heel			R.Midfoot.Superior			R.Midfoot.Lateral			R.Toe			L.Heel			L.Midfoot.Lateral			L.Midfoot.Superior			L.Toe			L.Elbow			L.Wrist			R.Elbow			R.Wrist			
		X1	Y1	Z1	X2	Y2	Z2	X3	Y3	Z3	X4	Y4	Z4	X5	Y5	Z5	X6	Y6	Z6	X7	Y7	Z7	X8	Y8	Z8	X9	Y9	Z9	X10	Y10	Z10	X11	Y11	Z11	X12	Y12	Z12	X13	Y13	Z13	X14	Y14	Z14	X15	Y15	Z15	X16	Y16	Z16	X17	Y17	Z17	X18	Y18	Z18	X19	Y19	Z19	X20	Y20	Z20	X21	Y21	Z21	X22	Y22	Z22	X23	Y23	Z23	X24	Y24	Z24	X25	Y25	Z25	X26	Y26	Z26	X27	Y27	Z27	X28	Y28	Z28	X29	Y29	Z29	X30	Y30	Z30	X31	Y31	Z31	X32	Y32	Z32	X33	Y33	Z33	

71	54.150000000000	666.814333429209	1004.295458158043	390.328073818192	895.177745298395	1434.754138051370	247.798677165771	955.340597518776	1361.674859105443	426.706827852653	836.501061909897	1435.935753441414	578.535933906952	846.852131983087	1495.581227461545	401.536651174671	876.296644228787	948.096157272818	546.502505885359	905.094104698473	959.989429819727	272.168442224730	955.006355872916	769.191878367348	523.929437599460	902.065958374329	651.634699359993	595.080956440877	991.846505941434	608.059139335354	520.137740083578	1019.619166383381	519.287737175636	544.285368459845	926.864333570959	736.442532384942	311.881551128858	831.580063539966	624.877424404143	247.219700115424	897.160877233135	543.747356675423	323.218539541657	887.913064093460	475.559268071944	335.481488753043	855.041145110230	405.398273010618	327.497207736325	758.854250290188	297.174904487068	274.952948641382	789.920779064597	185.982822778880	355.701177090839	986.817722984298	432.325215608527	556.785257399504	909.773511893499	333.570426121827	620.260021969674	965.202258670465	234.253399386943	576.938391972260	842.103372998877	64.546255242349	547.817868758301	1011.082160847783	115.217821372204	598.592182405090	920.372427469445	52.861823392459	627.489779573287	1126.425472638374	62.203481097630	634.114156762042	648.348532566410	38.297955575299	398.560330587431	722.744848331086	35.019289239164	318.143857664284	806.804726214781	94.946824769508	346.269879326258	934.889364283790	42.685698892379	317.971410960466	999.818554961522	1116.188365488176	103.560060863180	1244.736995222602	1034.376819775202	139.426731424602	662.899459356999	1131.589475271072	667.528384109599	624.771236300158	874.409107054633	688.819044269802	
72	54.169571428571	667.569328409008	1004.341523338804	391.414218517113	898.286645377942	1434.010877730148	251.124262915297	956.704133912684	1360.864839343855	430.530194121422	836.842553450693	1435.699921644854	581.291502833836	848.670631152795	1495.018822459460	404.420655936811	875.419828916492	947.113647958041	549.550002961065	906.578839298794	959.286999954151	275.313464842353	952.079024053611	766.685387168449	528.568943984174	896.163298950718	649.533884250363	598.514474791954	986.584751344480	605.469425344040	524.752642320472	1013.731055797494	519.047869938125	547.590818661058	925.143861174053	735.161800411185	314.458184920729	828.714144871539	624.969642296132	248.329625177858	892.496577868638	542.852972643013	324.394244864448	882.160209779491	475.021138931168	336.392498224562	849.576703168486	405.176521411239	328.079910947726	753.272611759932	297.198621386411	275.151527418710	784.148892894054	185.878629721196	355.934890930689	985.079452927842	431.796655449073	559.764405964212	913.117921474069	329.293090617744	623.806404143971	972.986769183992	232.648303435437	579.852770158859	857.312320514371	58.199082535053	551.596013734622	1024.869804621687	114.162143148782	600.289921917556	937.005760802329	48.555883658301	630.155289536586	1142.799045293539	65.278488211759	634.210222389389	642.419828859131	38.191613283290	398.545457712791	716.795295118792	34.939777974576	318.141840729100	800.866616537930	94.895562608734	346.320631290708	928.955154817603	42.630053405129	318.039960801106	1005.804159283001	1117.191230463152	106.724845959790	1253.512406808099	1045.466983293366	143.235178313064	658.831228799547	1133.831621540428	666.932805003838	618.219483747762	876.677602413312	687.327673661777	
73	54.189142857143	668.668211370925	1004.065131588615	392.971382989090	901.187303295715	1433.049591148877	254.701903211608	958.173866962213	1359.890439871384	434.517499001780	837.452475310374	1435.193342897316	584.391650956199	850.479294465811	1494.227593754859	407.606190602872	875.007798965111	945.825130433648	552.832070791242	908.321919983198	958.401846949218	278.723731806057	949.578050085146	763.875721014533	533.370419782791	890.586846063916	647.029042932095	601.743371658894	981.777547269898	602.685007612799	529.217361977878	1007.994271258883	518.295596759511	550.595386552184	923.834401540733	733.754572083002	317.195352410810	826.251572650331	624.942770684181	249.659113232417	888.277711524774	541.858218354964	325.737331489387	876.905721661444	474.344880096952	337.450460706201	844.483335969843	404.807115088091	328.810176080981	747.908190056863	297.209116936930	275.451870710441	778.486244314220	185.696112793657	356.209871211183	983.007831141073	430.772658324845	562.401153658327	915.347498858836	325.205749213476	626.596360919976	978.979620911488	231.028734438099	582.089408747048	869.686035721726	53.085853212457	554.307755131924	1035.912626596043	113.135476078657	601.206386513377	950.470057644999	45.089029552316	631.899896795711	1155.839636270463	67.614036505922	633.738331885630	636.480448916647	38.052436599876	398.537654138144	710.842243067443	34.843066974978	318.141156413632	794.918235897444	94.837980567466	346.380921836393	923.017599424993	42.562523873193	318.105967879642	1011.250836082827	1117.783025571194	110.223020629875	1261.231802962224	1055.553934389426	147.091070121423	656.586784130487	1134.928297624230	666.780674256034	614.399533696785	877.638265911329	686.004704171644	
74	54.208714285714	670.135036825667	1003.534374040437	395.021849720228	903.899523647824	1431.953321980924	258.542048969728	959.765188183143	1358.829280145608	438.686013916778	838.327158325066	1434.481539844463	587.850890201743	852.277744384517	1493.276026094348	411.111837197236	875.124326037234	944.323789698640	556.341132574570	910.341828005824	957.396363778796	282.394079070190	947.660025312219	760.920830319750	538.200317280537	885.607368750150	644.271958971217	604.687962715100	977.628851307490	599.865397455395	533.384997587895	1002.650225775588	517.118827084293	553.210818281383	922.962306526627	732.244523567003	320.074150640559	824.184927035862	624.824135885298	251.236148252192	884.524840398455	540.781708717091	327.258461749665	872.183274574964	473.534894940589	338.666887645073	839.775886838001	404.315561184068	329.698944669561	742.759959276890	297.244480555950	275.871848496784	772.930022849628	185.456365456911	356.517278324336	980.772173451061	429.291814653957	564.649881797711	916.509552931791	321.338980451930	628.631321560469	983.143327895107	229.299797839030	583.634357186722	878.923252028592	49.080897747336	555.995260368908	1044.062842528140	112.013692288999	601.394599483933	960.484580946630	42.364609106890	632.809980449609	1165.411814398435	68.981407217387	632.804363985186	630.532411369409	37.902824564828	398.524984923001	704.891267717372	34.739603434424	318.139566443736	788.966892473120	94.781428540818	346.442454167554	917.081979819291	42.469675075767	318.165350078102	1016.142787914164	1118.021697347841	114.031512482030	1267.933425346002	1064.586824599043	150.972059668525	656.026346969270	1134.969552539332	667.205864455628	613.138008471899	877.406456519003	685.063753945279	
